<!-- icon666.com - MILLIONS vector ICONS FREE --><svg id="Layer_1" enable-background="new 0 0 48 48" viewBox="0 0 48 48" xmlns="http://www.w3.org/2000/svg"><g><g><g><path d="m31.6 47.5h-15.2c-3.8 0-7-3.1-7-7v-27.5c0-.6.4-1 1-1h27c.6 0 1 .4 1 1v27.5c.1 3.9-3 7-6.8 7zm-20.1-33.5v26.5c0 2.7 2.2 5 5 5h15.1c2.7 0 5-2.2 5-5v-26.5z" fill="rgb(0,0,0)"></path></g><g><g><path d="m30.2 20.5h2v18.4h-2z" fill="rgb(0,0,0)"></path></g><g><path d="m23 20.5h2v18.4h-2z" fill="rgb(0,0,0)"></path></g><g><path d="m15.8 20.5h2v18.4h-2z" fill="rgb(0,0,0)"></path></g></g><g><path d="m38.9 14h-29.8c-2.5 0-4.6-2.1-4.6-4.6s2.1-4.6 4.6-4.6h29.9c2.5 0 4.6 2.1 4.6 4.6s-2.1 4.6-4.7 4.6zm-29.8-7.2c-1.5 0-2.6 1.2-2.6 2.6s1.2 2.6 2.6 2.6h29.9c1.4 0 2.6-1.2 2.6-2.6s-1.2-2.6-2.6-2.6z" fill="rgb(0,0,0)"></path></g><g><path d="m31.2 6.8h-14.4c-.3 0-.7-.2-.8-.5-.2-.3-.2-.6-.1-1l1-2.2c.7-1.6 2.4-2.7 4.2-2.7h5.9c1.8 0 3.4 1.1 4.2 2.7l1 2.2c.1.3.1.7-.1 1s-.5.5-.9.5zm-12.9-2h11.4l-.3-.8c-.5-.9-1.4-1.5-2.4-1.5h-6c-1 0-1.9.6-2.3 1.5z" fill="rgb(0,0,0)"></path></g></g><g><g><path d="m31.6 47.5h-15.2c-3.8 0-7-3.1-7-7v-27.5c0-.6.4-1 1-1h27c.6 0 1 .4 1 1v27.5c.1 3.9-3 7-6.8 7zm-20.1-33.5v26.5c0 2.7 2.2 5 5 5h15.1c2.7 0 5-2.2 5-5v-26.5z" fill="rgb(0,0,0)"></path></g><g><g><path d="m30.2 20.5h2v18.4h-2z" fill="rgb(0,0,0)"></path></g><g><path d="m23 20.5h2v18.4h-2z" fill="rgb(0,0,0)"></path></g><g><path d="m15.8 20.5h2v18.4h-2z" fill="rgb(0,0,0)"></path></g></g><g><path d="m38.9 14h-29.8c-2.5 0-4.6-2.1-4.6-4.6s2.1-4.6 4.6-4.6h29.9c2.5 0 4.6 2.1 4.6 4.6s-2.1 4.6-4.7 4.6zm-29.8-7.2c-1.5 0-2.6 1.2-2.6 2.6s1.2 2.6 2.6 2.6h29.9c1.4 0 2.6-1.2 2.6-2.6s-1.2-2.6-2.6-2.6z" fill="rgb(0,0,0)"></path></g><g><path d="m31.2 6.8h-14.4c-.3 0-.7-.2-.8-.5-.2-.3-.2-.6-.1-1l1-2.2c.7-1.6 2.4-2.7 4.2-2.7h5.9c1.8 0 3.4 1.1 4.2 2.7l1 2.2c.1.3.1.7-.1 1s-.5.5-.9.5zm-12.9-2h11.4l-.3-.8c-.5-.9-1.4-1.5-2.4-1.5h-6c-1 0-1.9.6-2.3 1.5z" fill="rgb(0,0,0)"></path></g></g></g></svg>